
<svg width="40px" height="50px" viewBox="0 0 21 36" version="1.1" xmlns="http://www.w3.org/2000/svg" xmlns:xlink="http://www.w3.org/1999/xlink">
    <!-- Generator: Sketch 47.1 (45422) - http://www.bohemiancoding.com/sketch -->
    <desc>Created with Sketch.</desc>
    <defs></defs>
    <g id="Page-1" stroke="none" stroke-width="1" fill="none" fill-rule="evenodd">
        <g id="Desktop" transform="translate(-490.000000, -400.000000)">
            <g id="noun_1101684_cc" transform="translate(500.525176, 418.499701) rotate(-29.000000) translate(-500.525176, -418.499701) translate(488.525176, 403.999701)">
                <g id="Group" transform="translate(0.000000, 0.000000)">
                    <path d="M2.47685445,16.0721393 C2.82434742,18.8955396 3.07131563,21.7302035 3.38033616,24.5573584 C4.83236035,22.462961 6.33526743,20.4061088 7.86423649,18.3692808 C5.98529237,17.8486538 4.166539,17.1528158 2.47685445,16.0721393 Z" id="Shape"></path>
                    <path d="M5.42185735,25.3833531 C7.19158939,24.8301869 8.92284899,24.1199566 10.5932973,23.3621689 C12.580833,22.460458 14.6372467,21.4874111 16.4814416,20.2515477 C14.3865554,19.7290434 12.2364426,19.3792472 10.1254229,18.9205698 C8.52137051,21.0487578 6.94462117,23.1963442 5.42185735,25.3833531 Z" id="Shape"></path>
                    <path d="M21.2135511,1.34690511 C19.2967551,3.70411899 17.2937064,5.96371531 15.4637836,8.39289086 C13.4117135,11.1167964 11.3205505,13.8106657 9.25731097,16.5251849 C7.21020508,16.0039321 5.23135674,15.2962048 3.42439331,14.1129047 C2.80759329,13.7099194 2.21747577,14.043446 1.96740494,14.559067 C1.29972202,14.0221704 0.09776867,14.2655886 0.234283764,15.3131001 C0.748697461,19.2684888 1.03041497,23.250159 1.54482867,27.2055477 C1.64038924,27.9401824 2.15480293,28.3900993 2.90563595,28.251182 C5.94185575,27.6892552 8.87010452,26.4921885 11.6798334,25.2350495 C14.4659823,23.9879226 17.2726086,22.5480635 19.6281145,20.5725593 C20.2871101,20.0193931 19.857708,18.9919057 19.1540348,18.7610026 C16.7029683,17.9569092 14.1042173,17.5601814 11.550144,17.0426831 C13.4719042,14.5221476 15.4116596,12.0166301 17.3210094,9.48733394 C19.1745121,7.03250249 21.2253411,4.75851384 23.1520655,2.36375474 C24.9807472,0.09164335 22.7425202,-0.532233008 21.2135511,1.34690511 Z M2.47685445,16.0721393 C4.166539,17.15219 5.98529237,17.8486538 7.86423649,18.3692808 C6.33464691,20.4061088 4.83236035,22.462961 3.38033616,24.5573584 C3.07069511,21.7302035 2.82372689,18.8955396 2.47685445,16.0721393 Z M16.4814416,20.2521735 C14.6372467,21.4880369 12.580833,22.4610837 10.5932973,23.3627947 C8.92346952,24.1205823 7.19158939,24.8308127 5.42185735,25.3839789 C6.94462117,23.1963442 8.52137051,21.0487578 10.1248023,18.9218213 C12.2364426,19.3798729 14.3859349,19.7296692 16.4814416,20.2521735 Z" id="Shape" fill="#000000" fill-rule="nonzero"></path>
                </g>
            </g>
        </g>
    </g>
</svg>
