
<svg width="24px" height="24px" viewBox="0 0 24 24" version="1.1" xmlns="http://www.w3.org/2000/svg" xmlns:xlink="http://www.w3.org/1999/xlink">
    <!-- Generator: Sketch 47.1 (45422) - http://www.bohemiancoding.com/sketch -->
    <desc>Created with Sketch.</desc>
    <defs></defs>
    <g id="Page-1" stroke="none" stroke-width="1" fill="none" fill-rule="evenodd">
        <g id="Desktop" transform="translate(-288.000000, -86.000000)" fill-rule="nonzero" fill="#FFFFFF">
            <g id="noun_1345013_cc" transform="translate(288.000000, 86.000000)">
                <g id="Group">
                    <path d="M0.5,0.846 L0.5,19.846 L6.5,19.846 L6.5,23.155 L7.224,22.794 C7.224,22.794 12.32,20.245 13.118,19.847 L23.5,19.847 L23.5,0.847 L0.5,0.847 L0.5,0.846 Z M22.5,18.846 L13,18.846 C12.886,18.846 12.881,18.846 7.5,21.537 L7.5,18.846 L1.5,18.846 L1.5,1.846 L22.5,1.846 L22.5,18.846 Z" id="Shape"></path>
                    <rect id="Rectangle-path" x="7" y="10.846" width="2" height="1"></rect>
                    <rect id="Rectangle-path" x="11" y="10.846" width="2" height="1"></rect>
                    <rect id="Rectangle-path" x="15" y="10.846" width="2" height="1"></rect>
                </g>
            </g>
        </g>
    </g>
</svg>
