
<svg width="723px" height="189px" viewBox="0 0 723 189" version="1.1" xmlns="http://www.w3.org/2000/svg" xmlns:xlink="http://www.w3.org/1999/xlink">
    <!-- Generator: Sketch 47.1 (45422) - http://www.bohemiancoding.com/sketch -->
    <desc>Created with Sketch.</desc>
    <defs></defs>
    <g id="Page-1" stroke="none" stroke-width="1" fill="none" fill-rule="evenodd">
        <path d="M517.10476,166.576985 C517.994979,108.452781 524.551117,60.1569464 538.316485,3.43019494 C538.462451,2.82867068 539.942179,2.85603332 540.173428,3.43019494 L543.072608,15.5627144 C547.470263,26.4815309 553.504113,36.6896151 557.957514,47.5858134 C562.856981,59.5734058 566.325435,72.1081158 571.102912,84.1448452 C571.27079,84.5678084 572.209879,84.5195513 572.468096,84.1448452 C573.015354,83.3507041 572.976649,82.2729556 573.055272,81.3117221 L573.055272,56.6063013 C573.882828,46.4887173 575.52764,36.4341315 577.539827,26.4841839 C589.179662,-31.0729692 602.489404,49.4209676 610.194139,76.8712053 C616.493574,99.3146721 621.071571,122.206068 626.510286,144.8735" id="Path-3" stroke="#FF0000" stroke-width="6"></path>
        <path d="M650.929459,16.4875163 C650.929459,121.065856 648.103467,80.87842 653.08733,137.328291" id="Path-4" stroke="#FF0000" stroke-width="6"></path>
        <polyline id="Path-5" stroke="#FF0000" stroke-width="6" points="653.08733 16.4581575 658.746237 16.4581575 661.307791 16.4581575 664.772128 16.4581575 667.333682 16.4581575 670.798019 16.4581575 674.262356 16.4581575 677.411087 16.4581575 679.972641 16.4581575 683.436978 16.4581575 685.198505 16.4581575 687.694002 16.4581575 689.45553 16.4581575 691.951027 16.4581575 693.712554 16.4581575 694.182295 16.4581575 695.253891 16.4581575 696.325486 16.4581575 696.809906 16.4581575 697.881502 16.4581575 698.351243 16.4581575 698.835663 16.4581575 699.312743 16.4581575 699.782484 16.4581575 700.266904 16.4581575 700.721965 16.4581575"></polyline>
        <path d="M652.867139,70.1040045 C670.866523,70.2654778 688.865907,70.4269511 706.865292,70.5884245" id="Path-6" stroke="#FF0000" stroke-width="6"></path>
        <polyline id="Path-7" stroke="#FF0000" stroke-width="6" points="653.799281 133.893313 661.461925 133.893313 665.9318 133.893313 671.51731 133.893313 675.532124 133.893313 678.093678 133.893313 683.679188 133.893313 688.149064 133.893313 692.149199 133.893313 694.710753 133.893313 699.180629 133.893313 701.742183 133.893313 704.105565 133.893313 707.569902 133.893313 709.294731 133.893313 710.946163 133.893313 712.017759 133.893313 713.089355 133.893313 714.109573 133.893313 715.181168 133.893313 716.150008 133.893313 716.619749 133.893313 717.691345 133.893313 718.168425 133.893313 718.638166 133.893313 719.122586 133.893313 720.194182 133.893313 720.663922 133.893313 721.148342 133.893313 721.632762 133.893313 722.586923 133.893313"></polyline>
        <path d="M461.249664,93.1653331 C395.422387,93.1653331 492.968737,92.2261826 385.144343,98.9416748 C279.474669,105.522967 294.581645,95.9895015 178.20892,113.577031 C159.534345,116.399339 141.752321,123.48172 123.396061,127.926139 C101.772083,133.161738 79.8501578,137.137649 58.2856071,142.612873 C43.2844223,146.421664 29.9211524,151.948459 13.564832,152.015025" id="Path-2" stroke="#FF0000" stroke-width="6"></path>
        <path d="M28.3469822,105.062982 C28.3469822,127.655397 8.19684635,139.886542 3.81037437,160.727246 C3.61211293,161.669212 5.34684481,159.356906 6.30587143,159.273986 C11.0589411,158.863022 15.8874707,158.657547 20.618281,159.273986 C22.4887627,159.517715 24.1043779,160.76584 25.6826721,161.798842 C29.6853602,164.418623 33.8305988,166.926196 37.3160922,170.202795 C42.573746,175.145345 46.9506681,180.948112 51.767956,186.32077" id="Path-8" stroke="#FF0000" stroke-width="6"></path>
    </g>
</svg>
